<svg width="43" height="48" viewBox="0 0 43 48" fill="none" xmlns="http://www.w3.org/2000/svg">
<path d="M41 46V41.1111C41 38.5179 39.9728 36.0309 38.1443 34.1972C36.3158 32.3635 33.8359 31.3333 31.25 31.3333H28.8125C28.166 31.3333 27.546 31.0758 27.0889 30.6174C26.6318 30.1589 26.375 29.5372 26.375 28.8889V16.6667C26.375 15.3701 25.8614 14.1265 24.9471 13.2097C24.0329 12.2929 22.7929 11.7778 21.5 11.7778C20.2071 11.7778 18.9671 12.2929 18.0529 13.2097C17.1386 14.1265 16.625 15.3701 16.625 16.6667V38.6667L10.775 30.8444C10.3209 30.2373 9.73209 29.7444 9.05517 29.405C8.37825 29.0656 7.63182 28.8889 6.875 28.8889H5.81712C3.70869 28.8889 2 30.6024 2 32.7169C2 33.4111 2.18769 34.0931 2.54356 34.6871L9.3125 46M21.5 4.44444V2M36.125 19.1111H38.5625M4.4375 19.1111H6.875M10.1486 7.72733L8.42525 5.99911M32.8514 7.72733L34.5748 5.99911" stroke="#4CAF4F" stroke-width="3" stroke-linecap="round" stroke-linejoin="round"/>
</svg>
