<svg width="66" height="56" viewBox="0 0 66 56" fill="none" xmlns="http://www.w3.org/2000/svg">
<path d="M65.5 38C65.5 47.9411 57.4411 56 47.5 56L20.5 56C17.7386 56 15.5 53.7614 15.5 51L15.5 17C15.5 11.4772 19.9772 7 25.5 7L60.5 7C63.2614 7 65.5 9.23858 65.5 12L65.5 38Z" fill="#E8F5E9"/>
<path d="M28.8116 23.6447C28.5708 23.6447 28.3472 23.5785 28.1486 23.472V23.4748C28.1486 23.8536 28.0014 24.2094 27.7342 24.4759C27.467 24.7431 27.1115 24.8903 26.7331 24.8903C26.4888 24.8903 26.2624 24.8225 26.0617 24.7131C26.0414 25.0597 25.9029 25.3836 25.6557 25.631C25.3886 25.8982 25.0331 26.0455 24.6544 26.0455C23.9021 26.0455 23.2912 25.4541 23.2472 24.7129C23.0144 24.8387 22.7513 24.9047 22.4798 24.8872C21.7398 24.8387 21.1602 24.1993 21.1602 23.4312V17.0646L20.4353 18.3205C20.1592 18.8009 19.6423 19.0992 19.0858 19.0992C18.8146 19.0992 18.5467 19.028 18.3095 18.8921C18.014 18.7208 17.8027 18.4459 17.7148 18.1169C17.6265 17.7878 17.6722 17.4436 17.843 17.1486C17.8432 17.1486 20.215 13.0414 20.3597 12.7891C20.3769 12.7512 20.4259 12.6412 20.4676 12.5474C20.5074 12.4579 20.5416 12.366 20.5743 12.2736C21.2896 10.2544 23.0606 9.00003 25.1965 9.00003C27.9702 9.00003 30.2268 11.4469 30.2268 14.4546L30.227 22.229C30.227 22.6073 30.08 22.9629 29.813 23.2303C29.5459 23.4975 29.1904 23.6447 28.8115 23.6447L28.8116 23.6447ZM25.1965 9.75217C23.3612 9.75217 21.8984 10.7888 21.2833 12.5252C21.2439 12.6354 21.2029 12.7457 21.1551 12.8531C21.0163 13.1644 21.0163 13.1644 20.9772 13.2091L20.972 13.2046C20.7784 13.5701 20.203 14.5664 18.4942 17.525C18.424 17.6464 18.4054 17.7873 18.4412 17.922C18.4775 18.0568 18.5645 18.1704 18.6849 18.2398C19.0585 18.4545 19.5702 18.3159 19.7832 17.9449L21.2107 15.4734C21.296 15.3262 21.4684 15.2539 21.6338 15.2986C21.7983 15.3427 21.9125 15.4918 21.9125 15.6619V23.4314C21.9125 23.798 22.1891 24.1144 22.5291 24.1368C22.7251 24.1472 22.908 24.0814 23.0453 23.9443C23.1702 23.8195 23.239 23.6531 23.239 23.4752V18.3939C23.239 18.1861 23.4074 18.0176 23.6152 18.0176C23.823 18.0176 23.9915 18.1858 23.9915 18.3939L23.9912 24.6302C23.9912 24.9959 24.2888 25.2934 24.6544 25.2934C24.8321 25.2934 24.9989 25.2246 25.124 25.0998C25.2489 24.9747 25.3177 24.8079 25.3177 24.6302V18.3939C25.3177 18.1861 25.4859 18.0176 25.6939 18.0176C25.9017 18.0176 26.0702 18.1858 26.0702 18.3939L26.0699 23.4168V23.4752C26.0699 23.8406 26.3675 24.1382 26.7334 24.1382C26.9108 24.1382 27.0771 24.0692 27.2029 23.9438C27.3278 23.8192 27.3966 23.6529 27.3966 23.475V18.3936C27.3966 18.1858 27.5648 18.0174 27.7728 18.0174C27.9806 18.0174 28.1491 18.1856 28.1491 18.3936L28.1486 22.2292C28.1486 22.595 28.4462 22.8926 28.8116 22.8926C28.9894 22.8926 29.1558 22.8236 29.2806 22.6989C29.406 22.5736 29.4745 22.4068 29.4745 22.2292L29.4748 14.4548C29.4748 11.8621 27.5556 9.75225 25.1965 9.75225L25.1965 9.75217Z" fill="#103E13"/>
<path d="M14.0291 29.0481L19.4888 25.7728C20.147 25.3775 20.994 25.5455 21.4162 26.1554C21.5703 26.3776 21.649 26.6365 21.6612 26.9002C21.8648 26.7939 22.0863 26.7362 22.3117 26.7362C22.4272 26.7362 22.5431 26.7506 22.6576 26.7791C23.0244 26.8707 23.3335 27.0999 23.5279 27.4241C23.7225 27.7488 23.7793 28.1292 23.6876 28.4956C23.603 28.8347 23.3969 29.12 23.1102 29.3158C23.3107 29.434 23.4836 29.5954 23.6066 29.8009C23.8012 30.1255 23.858 30.5058 23.7665 30.8726C23.6749 31.239 23.4457 31.5481 23.121 31.7429L23.1191 31.7441C23.3161 31.8622 23.486 32.0219 23.6075 32.2243C23.8024 32.5489 23.8591 32.9294 23.7675 33.2962C23.6756 33.6628 23.4464 33.9719 23.1222 34.1665L16.4558 38.1658C15.2116 38.912 13.7733 39.1695 12.4063 38.8903C11.0271 38.6085 9.88494 37.8158 9.19043 36.658C8.09135 34.8262 8.25606 32.662 9.61946 31.0102C9.68189 30.9348 9.74338 30.858 9.79922 30.7784C9.85836 30.6943 9.92739 30.5953 9.95094 30.5614C10.0921 30.3093 12.3948 26.1604 12.3946 26.1609C12.6271 25.7413 13.063 25.5038 13.5125 25.504C13.7222 25.504 13.9349 25.5556 14.1312 25.6645C14.3682 25.7969 14.5673 25.9898 14.7065 26.2224C14.9928 26.6995 15.0029 27.2965 14.7334 27.7797L14.0291 29.0481ZM14.0618 26.6092C13.9888 26.4874 13.8884 26.3903 13.7657 26.3215C13.5119 26.1811 13.1925 26.2725 13.0528 26.5253C11.405 29.4938 10.8433 30.5055 10.6266 30.8655L10.6315 30.8667C10.6134 30.927 10.6134 30.927 10.415 31.2104C10.3476 31.3063 10.2743 31.3984 10.1997 31.4891C9.02729 32.9095 8.89116 34.697 9.83518 36.271C10.4199 37.2459 11.3864 37.9143 12.5566 38.1532C13.7395 38.3938 14.9863 38.1699 16.0684 37.5207L22.7354 33.5212C22.8876 33.43 22.9951 33.2851 23.0379 33.1134C23.0808 32.9418 23.0542 32.7635 22.9628 32.6113C22.7748 32.298 22.3665 32.195 22.0531 32.3837L18.7642 34.3569C18.5861 34.4638 18.3547 34.4063 18.248 34.228C18.141 34.0499 18.1988 33.8187 18.3769 33.7118L21.666 31.7386L22.7343 31.0978C22.8864 31.0064 22.9941 30.8615 23.037 30.6902C23.0799 30.5185 23.0532 30.3399 22.9618 30.1879C22.7736 29.8744 22.3653 29.7723 22.0522 29.9604L17.6948 32.5743C17.5162 32.6815 17.2856 32.6236 17.1786 32.4455C17.0717 32.2673 17.1296 32.0362 17.3075 31.9293L22.6553 28.7211C22.8075 28.6297 22.915 28.4851 22.9578 28.3133C23.0007 28.1418 22.9741 27.9635 22.8829 27.8113C22.7917 27.6593 22.6468 27.5519 22.4751 27.509C22.3024 27.4661 22.1248 27.4927 21.973 27.5837L20.9831 28.1776C20.9828 28.1776 20.9828 28.1779 20.9826 28.1779H20.9824L16.6252 30.7918C16.4466 30.8993 16.2157 30.8413 16.109 30.663C16.0021 30.4849 16.06 30.2537 16.2379 30.1468L20.5953 27.5328C20.7475 27.4414 20.8551 27.2965 20.898 27.1252C20.9451 26.9372 20.9093 26.745 20.7976 26.5838C20.604 26.3037 20.1898 26.2292 19.8758 26.4179L13.2136 30.4147C13.0677 30.5018 12.8809 30.4806 12.7586 30.3626C12.6361 30.2443 12.6086 30.0584 12.691 29.9098L14.0764 27.4138C14.2154 27.1643 14.2099 26.8562 14.0617 26.6093L14.0618 26.6092Z" fill="#103E13"/>
<path d="M40.1181 36.6578C39.4238 37.8157 38.2819 38.6083 36.9024 38.8901C35.5353 39.1688 34.0974 38.9117 32.853 38.1656L26.186 34.1661C25.8615 33.9715 25.6321 33.6624 25.5402 33.2953C25.449 32.9289 25.506 32.5484 25.7004 32.2243C25.8217 32.0216 25.9918 31.8619 26.189 31.7439L26.1871 31.7427C25.8627 31.5481 25.6332 31.239 25.5419 30.8724C25.45 30.5058 25.507 30.125 25.7016 29.8004C25.8269 29.5919 25.9987 29.4289 26.1947 29.3132C25.9101 29.1174 25.7051 28.8331 25.6208 28.4957C25.5289 28.1289 25.5859 27.7483 25.7805 27.4242C25.9749 27.0997 26.2842 26.8705 26.6508 26.7789C26.7653 26.7501 26.8815 26.736 26.9965 26.736C27.2222 26.7362 27.4436 26.7935 27.6472 26.9C27.6597 26.6363 27.7381 26.3774 27.8922 26.1552C28.3146 25.5458 29.1609 25.3771 29.8201 25.7726L35.2796 29.0474L34.5759 27.7799C34.3059 27.296 34.3158 26.699 34.6021 26.2216C34.7415 25.9893 34.9408 25.7964 35.179 25.6628C35.3748 25.5544 35.5869 25.5031 35.796 25.5031C36.2453 25.5033 36.6817 25.7403 36.9139 26.1599C37.7235 27.6186 39.2511 30.3694 39.3585 30.5614C39.3813 30.5946 39.4504 30.6936 39.5095 30.7777C39.5658 30.8576 39.6266 30.9339 39.6895 31.0098C41.0527 32.6622 41.2171 34.8262 40.1181 36.6578L40.1181 36.6578ZM39.1091 31.4892C39.0341 31.3985 38.9606 31.3059 38.8937 31.2105C38.6902 30.9217 38.685 30.9141 38.6697 30.8385C38.4317 30.4448 37.8512 29.3997 36.2555 26.5249C36.1156 26.2726 35.7975 26.1805 35.5442 26.3204C35.4196 26.3901 35.3195 26.4875 35.2465 26.6093C35.0985 26.8559 35.0928 27.1641 35.2326 27.4143L36.6174 29.9095C36.7001 30.0584 36.6725 30.2441 36.5503 30.3623C36.4282 30.4809 36.2416 30.5016 36.0951 30.4144L29.4329 26.4177C29.1188 26.2295 28.7049 26.3032 28.5108 26.5836C28.3991 26.7447 28.3635 26.937 28.4102 27.1247C28.453 27.2963 28.5607 27.4409 28.7131 27.5323C28.7136 27.5326 28.7139 27.533 28.7143 27.5333L33.0703 30.1465C33.2484 30.2535 33.3061 30.4844 33.1992 30.6627C33.0922 30.8406 32.8616 30.8988 32.683 30.7916L27.3352 27.5835C27.1834 27.4925 27.0048 27.4657 26.8333 27.5088C26.6613 27.5517 26.5167 27.6591 26.4255 27.8115C26.3341 27.9635 26.3077 28.1418 26.3501 28.3133C26.393 28.4849 26.5007 28.6298 26.6529 28.7212L27.6935 29.3453L32.0005 31.9293C32.1786 32.0363 32.2363 32.2672 32.1293 32.4455C32.0224 32.6234 31.7917 32.6814 31.6131 32.5744L27.2562 29.9604C26.9429 29.772 26.5348 29.8742 26.3464 30.188C26.2549 30.3402 26.2286 30.5186 26.271 30.6901C26.3138 30.8616 26.4215 31.0063 26.5739 31.0979L27.6421 31.7387L30.9308 33.7119C31.1089 33.8188 31.1667 34.0497 31.0597 34.2281C30.9527 34.4059 30.7221 34.4644 30.5435 34.3569L27.2548 32.3838C27.1031 32.2928 26.9252 32.266 26.7528 32.3091C26.5812 32.352 26.4361 32.4594 26.3449 32.6114C26.2538 32.7636 26.2271 32.9422 26.2696 33.1134C26.3124 33.285 26.4201 33.4296 26.5725 33.5213L33.2395 37.5207C34.3214 38.1698 35.5691 38.3945 36.7514 38.1533C37.9213 37.9144 38.8878 37.246 39.4725 36.2711C40.4175 34.6968 40.2816 32.9091 39.1095 31.4892L39.1091 31.4892Z" fill="#103E13"/>
</svg>
