<svg width="49" height="49" viewBox="0 0 49 49" fill="none" xmlns="http://www.w3.org/2000/svg">
<path d="M30.5358 22.262C30.1862 22.262 29.8616 22.1659 29.5733 22.0113V22.0154C29.5733 22.5654 29.3595 23.0819 28.9716 23.4688C28.5837 23.8567 28.0676 24.0704 27.5182 24.0704C27.1635 24.0704 26.8347 23.9719 26.5433 23.8132C26.5139 24.3164 26.3128 24.7867 25.9539 25.1459C25.566 25.5338 25.0499 25.7476 24.5002 25.7476C23.408 25.7476 22.521 24.889 22.4571 23.8129C22.1191 23.9955 21.7371 24.0913 21.343 24.066C20.2685 23.9955 19.4271 23.0672 19.4271 21.9521V12.7086L18.3746 14.5321C17.9737 15.2295 17.2233 15.6626 16.4153 15.6626C16.0216 15.6626 15.6327 15.5593 15.2882 15.3619C14.8593 15.1132 14.5525 14.7141 14.4249 14.2365C14.2966 13.7587 14.363 13.2589 14.611 12.8306C14.6113 12.8306 18.0548 6.86759 18.2648 6.5013C18.2898 6.44623 18.361 6.28649 18.4215 6.15035C18.4793 6.02037 18.5289 5.88697 18.5764 5.75288C19.6149 2.82118 22.1862 1.00007 25.2872 1.00007C29.3142 1.00007 32.5904 4.55262 32.5904 8.91935L32.5907 20.2066C32.5907 20.7559 32.3773 21.2721 31.9897 21.6603C31.6018 22.0482 31.0857 22.262 30.5357 22.262L30.5358 22.262ZM25.2873 2.09208C22.6226 2.09208 20.4988 3.59716 19.6057 6.11809C19.5486 6.27817 19.4891 6.43825 19.4197 6.59423C19.2182 7.04608 19.2182 7.04608 19.1614 7.11107L19.1539 7.10457C18.8727 7.63509 18.0374 9.08163 15.5565 13.3772C15.4546 13.5533 15.4275 13.7579 15.4795 13.9535C15.5322 14.1492 15.6584 14.3141 15.8332 14.415C16.3757 14.7266 17.1187 14.5254 17.4279 13.9867L19.5004 10.3985C19.6242 10.1847 19.8746 10.0797 20.1147 10.1447C20.3535 10.2087 20.5194 10.4252 20.5194 10.6722V21.9524C20.5194 22.4846 20.9209 22.944 21.4146 22.9765C21.6991 22.9915 21.9646 22.8961 22.164 22.697C22.3453 22.5157 22.4452 22.2742 22.4452 22.016V14.6386C22.4452 14.3369 22.6897 14.0923 22.9914 14.0923C23.2931 14.0923 23.5377 14.3365 23.5377 14.6386L23.5373 23.6929C23.5373 24.2237 23.9694 24.6557 24.5002 24.6557C24.7581 24.6557 25.0003 24.5559 25.1819 24.3746C25.3632 24.193 25.4631 23.9508 25.4631 23.6929V14.6386C25.4631 14.3369 25.7073 14.0923 26.0094 14.0923C26.311 14.0923 26.5556 14.3365 26.5556 14.6386L26.5553 21.9311V22.016C26.5553 22.5465 26.9873 22.9785 27.5185 22.9785C27.7761 22.9785 28.0176 22.8783 28.2002 22.6963C28.3815 22.5153 28.4814 22.2738 28.4814 22.0156V14.6382C28.4814 14.3365 28.7256 14.0919 29.0276 14.0919C29.3293 14.0919 29.5739 14.3361 29.5739 14.6382L29.5732 20.2068C29.5732 20.738 30.0052 21.1701 30.5357 21.1701C30.794 21.1701 31.0355 21.0698 31.2168 20.8889C31.3987 20.7069 31.4983 20.4647 31.4983 20.2068L31.4986 8.91961C31.4986 5.15533 28.7123 2.09219 25.2872 2.09219L25.2873 2.09208Z" fill="#4CAF4F" stroke="#4CAF4F"/>
<path d="M9.07371 30.1067L17.0004 25.3514C17.9561 24.7775 19.1858 25.0214 19.7988 25.9069C20.0225 26.2295 20.1367 26.6054 20.1545 26.9882C20.45 26.8339 20.7716 26.7501 21.0989 26.7501C21.2665 26.7501 21.4348 26.771 21.601 26.8124C22.1336 26.9454 22.5824 27.2783 22.8646 27.7489C23.1471 28.2202 23.2296 28.7726 23.0965 29.3046C22.9737 29.7968 22.6744 30.2111 22.2581 30.4953C22.5492 30.667 22.8003 30.9013 22.9789 31.1996C23.2614 31.671 23.3438 32.2231 23.2111 32.7556C23.078 33.2875 22.7452 33.7363 22.2739 34.0192L22.2712 34.0209C22.5571 34.1923 22.8037 34.4242 22.9802 34.718C23.2631 35.1894 23.3455 35.7418 23.2125 36.2743C23.0791 36.8066 22.7463 37.2553 22.2756 37.5379L12.597 43.3443C10.7906 44.4276 8.70231 44.8015 6.71772 44.3962C4.71535 43.9871 3.05703 42.8361 2.04871 41.1552C0.452999 38.4957 0.692141 35.3536 2.67159 32.9554C2.76224 32.846 2.85151 32.7345 2.93258 32.6188C3.01844 32.4967 3.11866 32.3531 3.15286 32.3038C3.35775 31.9378 6.70103 25.9142 6.70068 25.9149C7.03829 25.3057 7.67108 24.9609 8.32371 24.9612C8.62814 24.9612 8.93701 25.0361 9.22196 25.1942C9.56607 25.3864 9.8551 25.6666 10.0573 26.0042C10.4729 26.6968 10.4876 27.5636 10.0963 28.2651L9.07371 30.1067ZM9.12125 26.5657C9.01522 26.3889 8.8695 26.2479 8.69129 26.1481C8.3229 25.9442 7.85907 26.0769 7.65626 26.4439C5.26396 30.7538 4.44846 32.2226 4.13375 32.7453L4.14093 32.747C4.11459 32.8345 4.11459 32.8345 3.82659 33.246C3.72876 33.3852 3.62239 33.519 3.51395 33.6507C1.81185 35.7129 1.61421 38.3081 2.98479 40.5933C3.83377 42.0087 5.2369 42.9792 6.93585 43.326C8.65328 43.6752 10.4634 43.3503 12.0345 42.4076L21.7141 36.6009C21.935 36.4686 22.091 36.2582 22.1533 36.0089C22.2155 35.7598 22.1769 35.5009 22.0441 35.2799C21.7712 34.825 21.1784 34.6755 20.7235 34.9495L15.9484 37.8142C15.6898 37.9695 15.3539 37.8861 15.199 37.6271C15.0437 37.3685 15.1275 37.033 15.3861 36.8777L20.1615 34.013L21.7124 33.0826C21.9333 32.9499 22.0897 32.7395 22.1519 32.4908C22.2142 32.2415 22.1755 31.9822 22.0428 31.7616C21.7695 31.3063 21.1767 31.1582 20.7221 31.4312L14.3958 35.2263C14.1366 35.3819 13.8017 35.2978 13.6464 35.0392C13.4911 34.7806 13.5753 34.445 13.8335 34.2897L21.5978 29.632C21.8187 29.4993 21.9747 29.2893 22.037 29.0399C22.0992 28.7909 22.0606 28.532 21.9282 28.311C21.7958 28.0904 21.5855 27.9344 21.3361 27.8721C21.0854 27.8099 20.8275 27.8485 20.6072 27.9806L19.1699 28.8429C19.1695 28.8429 19.1695 28.8432 19.1692 28.8432H19.1689L12.8429 32.6383C12.5837 32.7943 12.2484 32.7102 12.0935 32.4512C11.9382 32.1927 12.0224 31.8571 12.2806 31.7018L18.6069 27.9067C18.8278 27.774 18.9842 27.5636 19.0464 27.3149C19.1148 27.042 19.0628 26.7629 18.9007 26.5289C18.6195 26.1222 18.0182 26.0141 17.5623 26.2881L7.88974 32.0907C7.678 32.2173 7.40676 32.1865 7.22923 32.0151C7.05136 31.8434 7.01134 31.5735 7.13106 31.3577L9.14236 27.734C9.34417 27.3717 9.3363 26.9243 9.12115 26.5659L9.12125 26.5657Z" fill="#4CAF4F" stroke="#4CAF4F"/>
<path d="M46.9512 41.155C45.9431 42.8361 44.2852 43.9869 42.2825 44.396C40.2976 44.8006 38.21 44.4274 36.4033 43.3441L26.7237 37.5375C26.2527 37.2549 25.9196 36.8061 25.7862 36.2732C25.6538 35.7413 25.7366 35.1889 26.0188 34.7182C26.1949 34.424 26.4419 34.1921 26.7282 34.0207L26.7255 34.019C26.2544 33.7365 25.9213 33.2877 25.7886 32.7555C25.6552 32.2232 25.738 31.6704 26.0205 31.1992C26.2025 30.8964 26.4518 30.6597 26.7364 30.4918C26.3232 30.2075 26.0256 29.7947 25.9032 29.3048C25.7698 28.7723 25.8526 28.2198 26.1351 27.7491C26.4173 27.2781 26.8664 26.9453 27.3987 26.8123C27.5649 26.7705 27.7335 26.75 27.9005 26.75C28.2281 26.7504 28.5497 26.8335 28.8452 26.9881C28.8633 26.6053 28.9772 26.2294 29.2009 25.9068C29.8142 25.022 31.0429 24.7771 32 25.3513L39.9264 30.1059L38.9047 28.2656C38.5127 27.563 38.5271 26.6963 38.9427 26.0033C39.1452 25.666 39.4346 25.3858 39.7804 25.1919C40.0646 25.0346 40.3725 24.96 40.6762 24.96C41.3285 24.9603 41.962 25.3044 42.2992 25.9137C43.4745 28.0314 45.6924 32.0252 45.8483 32.304C45.8815 32.3522 45.9817 32.4959 46.0676 32.618C46.1493 32.7339 46.2376 32.8447 46.3289 32.9549C48.3081 35.354 48.5468 38.4958 46.9511 41.155L46.9512 41.155ZM45.4862 33.651C45.3774 33.5193 45.2707 33.3849 45.1736 33.2464C44.878 32.827 44.8705 32.8161 44.8483 32.7063C44.5028 32.1347 43.66 30.6174 41.3433 26.4436C41.1401 26.0772 40.6783 25.9435 40.3106 26.1467C40.1297 26.2479 39.9843 26.3892 39.8783 26.566C39.6635 26.9241 39.6552 27.3716 39.8581 27.7348L41.8687 31.3575C41.9887 31.5737 41.9487 31.8433 41.7712 32.015C41.594 32.187 41.3231 32.2171 41.1103 32.0906L31.4378 26.2879C30.9819 26.0146 30.3809 26.1217 30.099 26.5287C29.9369 26.7627 29.8852 27.0418 29.953 27.3144C30.0152 27.5634 30.1715 27.7735 30.3928 27.9062C30.3935 27.9065 30.3939 27.9072 30.3946 27.9075L36.7188 31.7016C36.9774 31.8569 37.0612 32.1921 36.9059 32.451C36.7506 32.7093 36.4158 32.7938 36.1565 32.6381L28.3922 27.9804C28.1719 27.8484 27.9126 27.8094 27.6636 27.872C27.4139 27.9342 27.2039 28.0902 27.0715 28.3115C26.9388 28.5322 26.9005 28.7911 26.9621 29.0401C27.0243 29.2891 27.1806 29.4995 27.4016 29.6322L28.9125 30.5383L35.1655 34.29C35.4241 34.4453 35.5079 34.7805 35.3526 35.0394C35.1974 35.2977 34.8625 35.3818 34.6032 35.2265L28.2776 31.4314C27.8227 31.1578 27.2303 31.3062 26.9566 31.7619C26.8239 31.9828 26.7856 32.2418 26.8472 32.4908C26.9094 32.7398 27.0657 32.9498 27.287 33.0829L28.8379 34.0133L33.6126 36.878C33.8712 37.0333 33.955 37.3685 33.7997 37.6274C33.6444 37.8857 33.3095 37.9705 33.0503 37.8145L28.2756 34.9498C28.0553 34.8178 27.797 34.7788 27.5467 34.8414C27.2976 34.9036 27.0869 35.0596 26.9546 35.2802C26.8222 35.5012 26.7835 35.7605 26.8451 36.0091C26.9074 36.2582 27.0637 36.4682 27.285 36.6012L36.9645 42.4079C38.5353 43.3503 40.3467 43.6765 42.0632 43.3263C43.7618 42.9794 45.165 42.009 46.0139 40.5936C47.3859 38.308 47.1885 35.7125 45.4868 33.651L45.4862 33.651Z" fill="#4CAF4F" stroke="#4CAF4F"/>
</svg>
