<svg width="18" height="19" viewBox="0 0 18 19" fill="none" xmlns="http://www.w3.org/2000/svg">
<path fill-rule="evenodd" clip-rule="evenodd" d="M17.0303 1.64157C17.2341 1.84529 17.3031 2.14772 17.2079 2.41966L11.9579 17.4197C11.8563 17.7099 11.5878 17.9087 11.2806 17.9213C10.9733 17.9338 10.6895 17.7575 10.5646 17.4765L7.6818 10.9901L1.1954 8.10725C0.91439 7.98236 0.738092 7.69858 0.750627 7.39132C0.763163 7.08406 0.961991 6.81559 1.25224 6.714L16.2522 1.464C16.5242 1.36882 16.8266 1.43784 17.0303 1.64157ZM9.14456 10.588L11.1671 15.1386L14.7064 5.02616L9.14456 10.588ZM13.6457 3.9655L3.53331 7.50485L8.0839 9.52734L13.6457 3.9655Z" fill="white"/>
</svg>
