<svg width="32" height="33" viewBox="0 0 32 33" fill="none" xmlns="http://www.w3.org/2000/svg">
<path fill-rule="evenodd" clip-rule="evenodd" d="M0 16.6719C0 7.83532 7.16344 0.671875 16 0.671875C24.8366 0.671875 32 7.83532 32 16.6719C32 25.5084 24.8366 32.6719 16 32.6719C7.16344 32.6719 0 25.5084 0 16.6719Z" fill="#3C464C"/>
<path fill-rule="evenodd" clip-rule="evenodd" d="M24.5333 16.6602C24.5333 17.2373 24.4746 17.8136 24.3592 18.3753C24.2467 18.9237 24.08 19.4621 23.8617 19.9768C23.6483 20.4824 23.3837 20.9696 23.0745 21.424C22.77 21.8754 22.4191 22.299 22.0337 22.6851C21.6474 23.0696 21.2224 23.4195 20.7711 23.7254C20.3152 24.0324 19.8273 24.2966 19.3214 24.5109C18.806 24.7281 18.2664 24.8945 17.7184 25.0069C17.1559 25.1226 16.5775 25.1816 15.9996 25.1816C15.4213 25.1816 14.8429 25.1226 14.2812 25.0069C13.7324 24.8945 13.1928 24.7281 12.6778 24.5109C12.1719 24.2966 11.6836 24.0324 11.2277 23.7254C10.7764 23.4195 10.3514 23.0696 9.96598 22.6851C9.58014 22.299 9.22927 21.8754 8.92426 21.424C8.61674 20.9696 8.35171 20.4824 8.13755 19.9768C7.91917 19.4621 7.75211 18.9237 7.63918 18.3753C7.52502 17.8136 7.46667 17.2373 7.46667 16.6602C7.46667 16.0826 7.52498 15.5051 7.63921 14.9446C7.75214 14.3962 7.91921 13.857 8.13758 13.3431C8.35174 12.8372 8.61677 12.3495 8.92429 11.8951C9.2293 11.4433 9.58017 11.0205 9.96601 10.6339C10.3515 10.2495 10.7765 9.9004 11.2277 9.59499C11.6836 9.28665 12.172 9.02247 12.6778 8.80775C13.1929 8.59009 13.7324 8.42327 14.2812 8.31177C14.8429 8.19694 15.4213 8.13867 15.9996 8.13867C16.5776 8.13867 17.1559 8.19694 17.7185 8.31177C18.2664 8.4233 18.806 8.59013 19.3215 8.80775C19.8273 9.02244 20.3153 9.28665 20.7711 9.59499C21.2224 9.9004 21.6474 10.2495 22.0337 10.6339C22.4191 11.0205 22.77 11.4433 23.0746 11.8951C23.3837 12.3495 23.6483 12.8372 23.8617 13.3431C24.08 13.857 24.2467 14.3962 24.3592 14.9446C24.4746 15.5051 24.5333 16.0826 24.5333 16.6602ZM12.8903 10.0781C10.858 11.0363 9.3413 12.9062 8.86835 15.1597C9.06047 15.1614 12.0973 15.1997 15.5962 14.2714C14.3349 12.0337 12.9873 10.2075 12.8903 10.0781ZM16.2 15.392C12.4477 16.5137 8.84711 16.433 8.71795 16.428C8.71584 16.5062 8.7121 16.5819 8.7121 16.6602C8.7121 18.5296 9.41838 20.2339 10.5793 21.5226C10.5768 21.5188 12.5711 17.9858 16.5038 16.7159C16.5988 16.6843 16.6954 16.656 16.7913 16.6285C16.6084 16.215 16.4087 15.8005 16.2 15.392ZM20.8123 11.1986C19.5293 10.0689 17.8447 9.38363 15.9996 9.38363C15.4075 9.38363 14.8329 9.45521 14.2824 9.58752C14.3916 9.734 15.7604 11.5473 17.0067 13.8324C19.7565 12.803 20.7944 11.2252 20.8123 11.1986ZM17.288 17.8344C17.2718 17.8397 17.2556 17.8444 17.2397 17.8502C12.94 19.347 11.5358 22.3634 11.5206 22.3964C12.7578 23.3571 14.3095 23.9367 15.9996 23.9367C17.0088 23.9367 17.9701 23.7315 18.8447 23.36C18.7368 22.7242 18.3135 20.4957 17.288 17.8344ZM20.0719 22.6951C21.7082 21.5925 22.8703 19.8416 23.1945 17.8135C23.0445 17.7653 21.0057 17.1207 18.6534 17.4973C19.6093 20.1204 19.9977 22.2566 20.0719 22.6951ZM17.5676 14.9167C17.7368 15.2638 17.9006 15.617 18.0518 15.9719C18.1056 16.0993 18.1581 16.2241 18.2093 16.3489C20.7128 16.0343 23.1792 16.5636 23.2846 16.5852C23.2679 14.8602 22.65 13.2769 21.6274 12.0374C21.6137 12.0569 20.4449 13.7434 17.5676 14.9167Z" fill="white"/>
</svg>
