<svg width="32" height="33" viewBox="0 0 32 33" fill="none" xmlns="http://www.w3.org/2000/svg">
<path fill-rule="evenodd" clip-rule="evenodd" d="M0 16.6719C0 7.83532 7.16344 0.671875 16 0.671875C24.8366 0.671875 32 7.83532 32 16.6719C32 25.5084 24.8366 32.6719 16 32.6719C7.16344 32.6719 0 25.5084 0 16.6719Z" fill="#3C464C"/>
<path fill-rule="evenodd" clip-rule="evenodd" d="M16.0008 8.13867C13.6833 8.13867 13.3924 8.14881 12.4822 8.19023C11.5737 8.23183 10.9536 8.37565 10.4111 8.58668C9.8498 8.80463 9.37371 9.09619 8.89939 9.57069C8.42472 10.045 8.13316 10.5211 7.91449 11.0822C7.70294 11.6249 7.55893 12.2452 7.51805 13.1533C7.47733 14.0635 7.46667 14.3546 7.46667 16.6721C7.46667 18.9896 7.47698 19.2796 7.51822 20.1898C7.56 21.0983 7.70383 21.7184 7.91467 22.261C8.13281 22.8222 8.42437 23.2983 8.89886 23.7726C9.373 24.2473 9.84909 24.5396 10.41 24.7575C10.9529 24.9685 11.5732 25.1124 12.4815 25.154C13.3917 25.1954 13.6824 25.2055 15.9997 25.2055C18.3174 25.2055 18.6074 25.1954 19.5176 25.154C20.4261 25.1124 21.0469 24.9685 21.5898 24.7575C22.1509 24.5396 22.6263 24.2473 23.1004 23.7726C23.5751 23.2983 23.8667 22.8222 24.0853 22.2611C24.2951 21.7184 24.4391 21.0981 24.4818 20.19C24.5227 19.2798 24.5333 18.9896 24.5333 16.6721C24.5333 14.3546 24.5227 14.0637 24.4818 13.1535C24.4391 12.245 24.2951 11.6249 24.0853 11.0823C23.8667 10.5211 23.5751 10.045 23.1004 9.57069C22.6258 9.09602 22.1511 8.80446 21.5893 8.58668C21.0453 8.37565 20.4248 8.23183 19.5164 8.19023C18.6062 8.14881 18.3164 8.13867 15.9981 8.13867H16.0008ZM15.2352 9.67644C15.4624 9.67609 15.716 9.67644 16.0008 9.67644C18.2792 9.67644 18.5492 9.68462 19.449 9.72551C20.281 9.76355 20.7325 9.90258 21.0333 10.0194C21.4316 10.174 21.7155 10.3589 22.014 10.6576C22.3127 10.9563 22.4975 11.2407 22.6526 11.639C22.7694 11.9394 22.9086 12.391 22.9464 13.223C22.9873 14.1225 22.9962 14.3928 22.9962 16.6701C22.9962 18.9475 22.9873 19.2177 22.9464 20.1173C22.9084 20.9493 22.7694 21.4008 22.6526 21.7013C22.4979 22.0995 22.3127 22.3831 22.014 22.6816C21.7153 22.9802 21.4318 23.1651 21.0333 23.3198C20.7329 23.4371 20.281 23.5758 19.449 23.6138C18.5494 23.6547 18.2792 23.6636 16.0008 23.6636C13.7222 23.6636 13.4521 23.6547 12.5526 23.6138C11.7205 23.5754 11.269 23.4364 10.968 23.3196C10.5698 23.1649 10.2853 22.98 9.98666 22.6814C9.68799 22.3827 9.5031 22.099 9.34807 21.7006C9.23127 21.4001 9.09207 20.9486 9.0542 20.1166C9.01331 19.217 9.00514 18.9468 9.00514 16.668C9.00514 14.3892 9.01331 14.1204 9.0542 13.2208C9.09225 12.3888 9.23127 11.9373 9.34807 11.6365C9.50274 11.2382 9.68799 10.9538 9.98666 10.6551C10.2853 10.3564 10.5698 10.1716 10.968 10.0165C11.2688 9.8992 11.7205 9.76053 12.5526 9.72231C13.3398 9.68675 13.6448 9.67609 15.2352 9.67431V9.67644ZM20.5558 11.0933C19.9905 11.0933 19.5318 11.5515 19.5318 12.117C19.5318 12.6823 19.9905 13.141 20.5558 13.141C21.1212 13.141 21.5798 12.6823 21.5798 12.117C21.5798 11.5517 21.1212 11.0933 20.5558 11.0933ZM16.0008 12.2898C13.5807 12.2898 11.6185 14.252 11.6185 16.6721C11.6185 19.0922 13.5807 21.0534 16.0008 21.0534C18.4209 21.0534 20.3824 19.0922 20.3824 16.6721C20.3824 14.252 18.4209 12.2898 16.0008 12.2898ZM16.0008 13.8276C17.5716 13.8276 18.8453 15.101 18.8453 16.6721C18.8453 18.2429 17.5716 19.5165 16.0008 19.5165C14.4297 19.5165 13.1563 18.2429 13.1563 16.6721C13.1563 15.101 14.4297 13.8276 16.0008 13.8276Z" fill="white"/>
</svg>
