<svg width="49" height="48" viewBox="0 0 49 48" fill="none" xmlns="http://www.w3.org/2000/svg">
<g clip-path="url(#clip0_310_2425)">
<path d="M32.2815 12.5C31.5734 12.4987 30.8686 12.5966 30.1877 12.7909L30.1877 12.7909L30.1848 12.7917C29.9306 12.8675 29.6638 12.892 29.4001 12.8638C29.1363 12.8355 28.8808 12.7551 28.6485 12.6272C28.4161 12.4992 28.2115 12.3263 28.0466 12.1185L27.8508 12.274L28.0466 12.1185C27.8817 11.9108 27.7597 11.6723 27.6879 11.4169C27.616 11.1615 27.5957 10.8945 27.628 10.6312C27.6604 10.3679 27.7448 10.1137 27.8764 9.88332C28.0079 9.65297 28.184 9.45109 28.3943 9.28944C28.6046 9.12778 28.845 9.00959 29.1015 8.94172L29.1015 8.94177L29.106 8.94049C30.1386 8.64651 31.2072 8.49826 32.2808 8.50004L32.282 8.50004C34.6936 8.49304 37.0487 9.22944 39.0268 10.609C41.0049 11.9885 42.5097 13.9442 43.3364 16.2096C44.1632 18.4751 44.2716 20.9403 43.647 23.2696C43.0224 25.599 41.6951 27.6792 39.8458 29.2271L39.5406 29.4825L39.9032 29.6466C42.9172 31.0105 45.5108 33.1569 47.4143 35.8626L47.4154 35.8642C47.5681 36.0778 47.6768 36.3196 47.7352 36.5756C47.7937 36.8316 47.8006 37.0967 47.7557 37.3554C47.7108 37.6141 47.6149 37.8613 47.4735 38.0826C47.3322 38.304 47.1483 38.495 46.9325 38.6446L46.9296 38.6467C46.5951 38.8858 46.1939 39.0138 45.7827 39.0125C45.4622 39.0107 45.1467 38.9326 44.8624 38.7846C44.5781 38.6366 44.3331 38.4231 44.1477 38.1617C42.8073 36.2601 41.03 34.7081 38.9653 33.6359C36.9004 32.5636 34.6083 32.0026 32.2815 32H32.2813C31.7508 32 31.2421 31.7893 30.867 31.4143C30.492 31.0392 30.2813 30.5305 30.2813 30C30.2813 29.4696 30.492 28.9609 30.867 28.5858C31.2421 28.2108 31.7508 28 32.2813 28C34.3367 28 36.3079 27.1835 37.7613 25.7301C39.2147 24.2767 40.0313 22.3055 40.0313 20.25C40.0313 18.1946 39.2147 16.2234 37.7613 14.77C36.308 13.3166 34.3368 12.5001 32.2815 12.5ZM32.2815 12.5C32.2816 12.5 32.2816 12.5 32.2817 12.5L32.2813 12.75V12.5C32.2813 12.5 32.2814 12.5 32.2815 12.5ZM24.5641 29.2275L24.2604 29.4829L24.6219 29.6466C27.6359 31.0105 30.2295 33.1569 32.133 35.8626L32.1328 35.8628L32.1404 35.8726C32.3071 36.0862 32.4287 36.3314 32.4978 36.5934C32.5669 36.8554 32.582 37.1287 32.5422 37.3967C32.5024 37.6647 32.4086 37.9219 32.2665 38.1525C32.1243 38.3832 31.9368 38.5826 31.7153 38.7386C31.4937 38.8945 31.2428 39.0039 30.9777 39.06C30.7126 39.116 30.4389 39.1176 30.1732 39.0647C29.9075 39.0118 29.6553 38.9054 29.4319 38.7521C29.2085 38.5987 29.0186 38.4016 28.8738 38.1726L28.874 38.1725L28.8671 38.1626C27.5294 36.2574 25.7527 34.7023 23.6872 33.6287C21.6216 32.5551 19.3279 31.9946 17 31.9946C14.6721 31.9946 12.3784 32.5551 10.3128 33.6287C8.24727 34.7023 6.47056 36.2574 5.13289 38.1626L5.13234 38.1634C4.94928 38.4263 4.70521 38.6409 4.42103 38.7888C4.13686 38.9367 3.82107 39.0135 3.50072 39.0125L3.49919 39.0125C3.08777 39.0139 2.68634 38.8859 2.35162 38.6466L2.35042 38.6458C1.91777 38.3404 1.62391 37.8759 1.5333 37.3541C1.4427 36.8324 1.5627 36.296 1.86697 35.8626C3.7705 33.1569 6.36409 31.0105 9.37807 29.6466L9.73961 29.4829L9.43594 29.2275C7.59166 27.676 6.26909 25.5949 5.64751 23.2664C5.02593 20.9378 5.13542 18.4745 5.96114 16.2103C6.78686 13.9461 8.28885 11.9905 10.2635 10.6088C12.2381 9.22707 14.5899 8.48596 17 8.48596C19.4101 8.48596 21.7618 9.22707 23.7365 10.6088C25.7111 11.9905 27.2131 13.9461 28.0389 16.2103C28.8646 18.4745 28.9741 20.9378 28.3525 23.2664C27.7309 25.5949 26.4083 27.676 24.5641 29.2275ZM10.5561 15.9444C9.70453 17.2189 9.25 18.7172 9.25 20.25C9.25 22.3055 10.0665 24.2767 11.5199 25.7301C12.9733 27.1835 14.9446 28 17 28C18.5328 28 20.0312 27.5455 21.3057 26.6939C22.5801 25.8424 23.5735 24.632 24.1601 23.2158C24.7466 21.7997 24.9001 20.2414 24.6011 18.7381C24.3021 17.2347 23.5639 15.8538 22.4801 14.77C21.3962 13.6861 20.0153 12.948 18.512 12.649C17.0086 12.3499 15.4503 12.5034 14.0342 13.09C12.6181 13.6766 11.4077 14.6699 10.5561 15.9444Z" fill="#4CAF4F" stroke="#F5F7FA" stroke-width="0.5"/>
</g>
<defs>
<clipPath id="clip0_310_2425">
<rect width="48" height="48" fill="white" transform="translate(0.5)"/>
</clipPath>
</defs>
</svg>
