<svg width="136" height="21" viewBox="0 0 136 21" fill="none" xmlns="http://www.w3.org/2000/svg">
<path d="M16.438 11.4922L11.721 19.571L7.00392 11.4922H16.438ZM17.7017 10.7702H5.73514L11.721 21L17.7017 10.7702Z" fill="#263238"/>
<path d="M24.6392 1.44408L29.3562 9.52286H19.9221L24.6392 1.44408ZM24.6392 0L18.6533 10.2298H30.625L24.6392 0Z" fill="#263238"/>
<path d="M0 0L5.01892 9.04825L10.5034 0.227203L0 0Z" fill="#4CAF4F"/>
<path d="M11.7211 0.792647L16.9856 9.79041H6.44637L11.7211 0.792647Z" fill="#4CAF4F"/>
<path d="M18.3413 11.7548L23.6109 21H12.821L18.1776 11.7548H18.3413Z" fill="#4CAF4F"/>
<path d="M19.4822 11.1943L24.6392 20.2981L29.8678 11.1943H19.4822Z" fill="#4CAF4F"/>
<path d="M52.5286 1.75V19.5682H49.2747L41.5227 8.35352H41.3922V19.5682H37.625V1.75H40.9311L48.6222 12.956H48.7788V1.75H52.5286Z" fill="#263238"/>
<path d="M61.6617 19.8292C60.2871 19.8292 59.1038 19.5508 58.112 18.994C57.126 18.4313 56.3661 17.6367 55.8325 16.6101C55.2989 15.5777 55.0321 14.3567 55.0321 12.9473C55.0321 11.5726 55.2989 10.3662 55.8325 9.32795C56.3661 8.28971 57.1173 7.48059 58.0859 6.90057C59.0603 6.32055 60.203 6.03054 61.5138 6.03054C62.3954 6.03054 63.2162 6.17264 63.976 6.45685C64.7416 6.73526 65.4086 7.15578 65.9771 7.71839C66.5513 8.28101 66.9979 8.98864 67.3169 9.84126C67.6359 10.6881 67.7954 11.6799 67.7954 12.8168V13.8347H56.5111V11.5378H64.3066C64.3066 11.0042 64.1906 10.5315 63.9586 10.1197C63.7266 9.70786 63.4047 9.38595 62.9929 9.15394C62.5868 8.91613 62.1141 8.79723 61.5747 8.79723C61.0121 8.79723 60.5133 8.92773 60.0783 9.18874C59.649 9.44395 59.3126 9.78906 59.069 10.2241C58.8254 10.6533 58.7007 11.1318 58.6949 11.6596V13.8434C58.6949 14.5046 58.8167 15.0759 59.0603 15.5574C59.3097 16.0388 59.6606 16.41 60.1131 16.671C60.5655 16.932 61.102 17.0625 61.7226 17.0625C62.1344 17.0625 62.5114 17.0045 62.8536 16.8885C63.1959 16.7725 63.4888 16.5985 63.7324 16.3665C63.976 16.1345 64.1616 15.8503 64.2892 15.5138L67.7171 15.7401C67.5431 16.5637 67.1864 17.2829 66.647 17.8977C66.1134 18.5067 65.4231 18.9824 64.5763 19.3246C63.7353 19.661 62.7637 19.8292 61.6617 19.8292Z" fill="#263238"/>
<path d="M73.0721 6.20455L75.5256 10.8766L78.04 6.20455H81.842L77.9704 12.8864L81.9464 19.5682H78.1618L75.5256 14.9483L72.9329 19.5682H69.1048L73.0721 12.8864L69.244 6.20455H73.0721Z" fill="#263238"/>
<path d="M89.6027 19.8292C88.2338 19.8292 87.0564 19.5392 86.0704 18.9592C85.0901 18.3733 84.3361 17.5613 83.8083 16.5231C83.2863 15.4848 83.0253 14.29 83.0253 12.9386C83.0253 11.5697 83.2892 10.3691 83.817 9.33665C84.3506 8.29841 85.1075 7.48929 86.0878 6.90927C87.068 6.32345 88.2338 6.03054 89.5853 6.03054C90.7511 6.03054 91.7719 6.24225 92.6478 6.66566C93.5236 7.08907 94.2167 7.68359 94.7271 8.44922C95.2376 9.21484 95.5189 10.1139 95.5711 11.1463H92.0736C91.9749 10.4793 91.7139 9.94277 91.2905 9.53675C90.8729 9.12494 90.3248 8.91903 89.6462 8.91903C89.072 8.91903 88.5702 9.07564 88.141 9.38885C87.7176 9.69626 87.387 10.1458 87.1492 10.7374C86.9114 11.329 86.7925 12.0453 86.7925 12.8864C86.7925 13.739 86.9085 14.464 87.1405 15.0614C87.3783 15.6589 87.7118 16.1142 88.141 16.4274C88.5702 16.7406 89.072 16.8972 89.6462 16.8972C90.0696 16.8972 90.4495 16.8102 90.7859 16.6362C91.1281 16.4622 91.4094 16.2099 91.6298 15.8793C91.856 15.5428 92.004 15.1397 92.0736 14.6699H95.5711C95.5131 15.6908 95.2347 16.5898 94.7358 17.367C94.2428 18.1384 93.5613 18.7417 92.6913 19.1767C91.8212 19.6117 90.7917 19.8292 89.6027 19.8292Z" fill="#263238"/>
<path d="M104.034 19.8292C102.66 19.8292 101.476 19.5508 100.485 18.994C99.4985 18.4313 98.7387 17.6367 98.2051 16.6101C97.6715 15.5777 97.4046 14.3567 97.4046 12.9473C97.4046 11.5726 97.6715 10.3662 98.2051 9.32795C98.7387 8.28971 99.4898 7.48059 100.458 6.90057C101.433 6.32055 102.576 6.03054 103.886 6.03054C104.768 6.03054 105.589 6.17264 106.349 6.45685C107.114 6.73526 107.781 7.15578 108.35 7.71839C108.924 8.28101 109.37 8.98864 109.689 9.84126C110.008 10.6881 110.168 11.6799 110.168 12.8168V13.8347H98.8837V11.5378H106.679C106.679 11.0042 106.563 10.5315 106.331 10.1197C106.099 9.70786 105.777 9.38595 105.365 9.15394C104.959 8.91613 104.487 8.79723 103.947 8.79723C103.385 8.79723 102.886 8.92773 102.451 9.18874C102.022 9.44395 101.685 9.78906 101.442 10.2241C101.198 10.6533 101.073 11.1318 101.067 11.6596V13.8434C101.067 14.5046 101.189 15.0759 101.433 15.5574C101.682 16.0388 102.033 16.41 102.486 16.671C102.938 16.932 103.475 17.0625 104.095 17.0625C104.507 17.0625 104.884 17.0045 105.226 16.8885C105.568 16.7725 105.861 16.5985 106.105 16.3665C106.349 16.1345 106.534 15.8503 106.662 15.5138L110.09 15.7401C109.916 16.5637 109.559 17.2829 109.02 17.8977C108.486 18.5067 107.796 18.9824 106.949 19.3246C106.108 19.661 105.136 19.8292 104.034 19.8292Z" fill="#263238"/>
<path d="M116.293 11.8423V19.5682H112.587V6.20455H116.119V8.56232H116.276C116.571 7.7851 117.067 7.17028 117.763 6.71786C118.459 6.25965 119.303 6.03054 120.295 6.03054C121.223 6.03054 122.032 6.23355 122.722 6.63956C123.413 7.04557 123.949 7.62559 124.332 8.37962C124.715 9.12784 124.906 10.0211 124.906 11.0593V19.5682H121.2V11.7205C121.206 10.9027 120.997 10.2647 120.574 9.80646C120.15 9.34245 119.567 9.11044 118.825 9.11044C118.326 9.11044 117.885 9.21774 117.502 9.43235C117.125 9.64696 116.829 9.96017 116.615 10.372C116.406 10.778 116.299 11.2681 116.293 11.8423Z" fill="#263238"/>
<path d="M134.936 6.20455V8.98864H126.888V6.20455H134.936ZM128.715 3.00284H132.421V15.4616C132.421 15.8039 132.473 16.0707 132.578 16.2621C132.682 16.4477 132.827 16.5782 133.013 16.6536C133.204 16.729 133.425 16.7667 133.674 16.7667C133.848 16.7667 134.022 16.7522 134.196 16.7232C134.37 16.6884 134.503 16.6623 134.596 16.6449L135.179 19.4029C134.993 19.4609 134.732 19.5276 134.396 19.603C134.06 19.6842 133.651 19.7335 133.169 19.7509C132.276 19.7857 131.493 19.6668 130.82 19.3942C130.153 19.1216 129.634 18.6982 129.263 18.1239C128.892 17.5497 128.709 16.8247 128.715 15.9489V3.00284Z" fill="#263238"/>
</svg>
